# xmcd
#
# Track frame offsets: 
#        150
#        18070
#        32932
#        45375
#        63915
#        83907
#        99572
#        109302
#        116957
#
# Disc length: 1740 seconds
#
# Revision: 0
# Processed by: cddbd v1.5.1PL0 Copyright (c) Steve Scherf et al.
# Submitted via: ExactAudioCopy v0.95a5
#
DISCID=6f06ca09
DTITLE=U.S.E. - Mikami Kan
DYEAR=1993
DGENRE=
TTITLE0=Sakana
TTITLE1=Miyakojima
TTITLE2=Hotaru
TTITLE3=U.S.E.
TTITLE4=70'
TTITLE5=Nanji, rinjinno
TTITLE6=MC Bluse
TTITLE7=Sakura, sakura
TTITLE8=Yowaihito
EXTD=
EXTT0=
EXTT1=
EXTT2=
EXTT3=
EXTT4=
EXTT5=
EXTT6=
EXTT7=
EXTT8=
PLAYORDER=
